<?xml version="1.0" encoding="UTF-8" standalone="no"?>
<!-- Uploaded to: SVG Repo, www.svgrepo.com, Generator: SVG Repo Mixer Tools -->

<svg
   fill="#000000"
   version="1.1"
   id="Capa_1"
   width="125"
   height="35"
   viewBox="0 0 125 35"
   xml:space="preserve"
   sodipodi:docname="icon_title_find_all.svg"
   inkscape:version="1.2 (dc2aedaf03, 2022-05-15)"
   xmlns:inkscape="http://www.inkscape.org/namespaces/inkscape"
   xmlns:sodipodi="http://sodipodi.sourceforge.net/DTD/sodipodi-0.dtd"
   xmlns="http://www.w3.org/2000/svg"
   xmlns:svg="http://www.w3.org/2000/svg"><defs
   id="defs586"><rect
     x="109.90899"
     y="6.404953"
     width="43.809875"
     height="11.272717"
     id="rect1896" /><rect
     x="25.74791"
     y="2.8181791"
     width="68.276794"
     height="15.884283"
     id="rect391" /></defs><sodipodi:namedview
   id="namedview584"
   pagecolor="#ffffff"
   bordercolor="#000000"
   borderopacity="0.25"
   inkscape:showpageshadow="2"
   inkscape:pageopacity="0.0"
   inkscape:pagecheckerboard="0"
   inkscape:deskcolor="#d1d1d1"
   showgrid="false"
   inkscape:zoom="5.52"
   inkscape:cx="45.471015"
   inkscape:cy="0.36231884"
   inkscape:window-width="1920"
   inkscape:window-height="1046"
   inkscape:window-x="1355"
   inkscape:window-y="-11"
   inkscape:window-maximized="1"
   inkscape:current-layer="layer1" />
<g
   id="g1"
   inkscape:label="g1"
   transform="translate(3.6231884,5.2536232)">
	<path
   d="m 16.836144,10.587741 c -0.281419,-0.07741 -0.488265,-0.32386 -0.488265,-0.6187944 0,-0.2966347 0.209805,-0.543925 0.49359,-0.6199274 0.05829,-0.015597 0.117775,-0.026655 0.180807,-0.026655 0.03936,0 0.07753,0.00369 0.115111,0.00992 -0.0013,-0.00738 -0.0013,-0.01531 -0.0024,-0.022691 -0.03876,0.00708 -0.07901,0.011346 -0.119253,0.011346 -0.06245,0 -0.120735,-0.010494 -0.17844,-0.025525 -0.285856,-0.075435 -0.497438,-0.3232919 -0.497438,-0.6207787 0,-0.2098563 0.106235,-0.3947566 0.267511,-0.5127304 0.07991,-0.058134 0.172223,-0.099257 0.273427,-0.119391 -0.0036,-0.011346 -0.0063,-0.022969 -0.01036,-0.034314 -0.17104,-0.040267 -0.316928,-0.1417952 -0.409845,-0.2807544 -0.04498,-0.06835 -0.07812,-0.1454813 -0.09322,-0.2282898 -0.0074,-0.038279 -0.01302,-0.07742 -0.01302,-0.1179739 0,-0.1332869 0.04558,-0.254096 0.117776,-0.3561885 -0.09144,-0.1814978 -0.191755,-0.3578913 -0.29947,-0.5294628 -0.06807,0.070617 -0.150917,0.1276151 -0.245611,0.1636315 0.02664,0.042538 0.05208,0.08621 0.07753,0.1293174 0.207439,0.1103167 0.349776,0.3198886 0.349776,0.5632095 0,0.032044 -0.0053,0.062959 -0.0095,0.093585 -0.04734,0.3127997 -0.325805,0.5530006 -0.66463,0.5530006 -0.372856,0 -0.6741,-0.2895453 -0.6741,-0.6465855 0,-0.3570396 0.301835,-0.6463016 0.6741,-0.6463016 -0.372856,0 -0.6741,-0.2895453 -0.6741,-0.646302 0,-0.1528552 0.05682,-0.291247 0.149734,-0.4021304 0.06304,-0.075155 0.142328,-0.1364077 0.233471,-0.1792295 C 15.248532,5.3274199 15.101164,5.18364 14.94788,5.046382 c -0.04616,0.086494 -0.112154,0.1616469 -0.191164,0.2206334 -0.11452,0.084511 -0.255377,0.1366903 -0.41103,0.1366903 -0.372855,0 -0.674396,-0.2895453 -0.674396,-0.6465856 0,-0.089331 0.01894,-0.1746907 0.05326,-0.2523952 0.03994,-0.089614 0.101796,-0.1676019 0.176958,-0.2311258 -0.178143,-0.1074808 -0.361907,-0.207021 -0.549814,-0.2994709 -0.104756,0.065227 -0.227561,0.1057788 -0.361908,0.1057788 -0.0432,0 -0.08612,-0.00483 -0.12754,-0.012483 -0.09203,-0.016734 -0.17696,-0.050762 -0.25153,-0.099257 -0.140858,-0.091601 -0.241173,-0.2333946 -0.278164,-0.3975931 -0.01036,-0.00339 -0.01983,-0.00678 -0.03077,-0.00993 -0.01391,0.097555 -0.0432,0.1902887 -0.09706,0.2691268 -0.120145,0.1772434 -0.327582,0.2949338 -0.564611,0.2949338 -0.337643,0 -0.614326,-0.2379326 -0.664633,-0.5476125 -0.0053,-0.032609 -0.01037,-0.064941 -0.01037,-0.098974 0,-0.064663 0.01332,-0.1256306 0.03167,-0.184617 -0.01834,-0.00197 -0.03699,-0.00483 -0.05562,-0.00657 0.01391,0.052178 0.02367,0.1057793 0.02367,0.1619302 0,0.042825 -0.005,0.084794 -0.01272,0.1250633 -0.06126,0.2972027 -0.33409,0.5212388 -0.661671,0.5212388 -0.3340914,0 -0.609886,-0.233678 -0.6634483,-0.5396724 -0.00598,-0.034886 -0.010953,-0.070045 -0.010953,-0.1066297 0,-0.062959 0.012138,-0.1222269 0.030184,-0.1792288 -0.023081,0.00174 -0.046158,0.00309 -0.06984,0.00514 0.023672,0.064942 0.039947,0.1332877 0.039947,0.2061708 0,0.026091 -0.00529,0.051048 -0.00803,0.076287 -0.039954,0.3207338 -0.3213725,0.5702933 -0.6664139,0.5702933 -0.2595194,0 -0.4814572,-0.1415117 -0.5947936,-0.3468305 -0.044981,-0.082525 -0.072206,-0.1755427 -0.076938,-0.2747985 -0.00297,8.291e-4 -0.00594,0.00174 -0.00858,0.00225 C 8.2494474,3.6349193 8.2003235,3.7506237 8.123382,3.84591 7.999688,3.9981981 7.8088218,4.0980225 7.5922093,4.0980225 c -0.040541,0 -0.080194,-0.00514 -0.1189591,-0.011632 -0.1304519,-0.0224 -0.2443804,-0.082805 -0.3370026,-0.165614 -0.1958977,0.091316 -0.386764,0.190857 -0.5711211,0.2986206 0.09351,0.047926 0.1745915,0.1165559 0.2358466,0.1996478 0.077531,0.1052119 0.1236932,0.232827 0.1236932,0.3717865 0,0.3573228 -0.3018353,0.6465857 -0.6743957,0.6465857 -0.2183873,0 -0.4104382,-0.1009584 -0.5335395,-0.2552313 -0.063621,-0.078838 -0.1080103,-0.1712887 -0.1284282,-0.2725304 -0.01509,0.012196 -0.029595,0.023821 -0.043793,0.036296 -0.066584,0.2121252 -0.2408772,0.3771745 -0.4645908,0.4361612 -0.014497,0.015031 -0.029594,0.029498 -0.043793,0.044527 0.1047548,0.023533 0.200632,0.069194 0.2802345,0.1332876 0.1485505,0.1188234 0.2450196,0.2952171 0.2450196,0.4948644 0,0.3570394 -0.301836,0.6463022 -0.6743963,0.6463022 0.3728559,0 0.6743963,0.2895453 0.6743963,0.6463013 0,0.3573238 -0.301836,0.6465859 -0.6743963,0.6465859 -0.3725605,0 -0.6743965,-0.2895456 -0.6743965,-0.6465859 0,-0.3570393 0.301836,-0.6463013 0.6743965,-0.6463013 -0.1444082,0 -0.2778669,-0.044527 -0.3879478,-0.1188243 C 4.4135155,6.5247109 4.3430867,6.4481408 4.2933729,6.3599446 4.1847714,6.5241432 4.0835672,6.693163 3.9900574,6.8664366 c 0.084336,0.074869 0.1509181,0.1681688 0.1873159,0.2762165 0.020713,0.062393 0.035215,0.1273317 0.035215,0.1962443 0,0.247574 -0.1467749,0.4599834 -0.3601318,0.5688822 -0.094102,0.047926 -0.2006321,0.077703 -0.3148563,0.077703 -0.00798,0 -0.015092,-0.00256 -0.023082,-0.00309 -5.911e-4,0.00174 -0.00117,0.00309 -0.00178,0.00453 0.00414,0 0.0068,-0.00143 0.010949,-0.00143 0.100612,0 0.1947138,0.022404 0.2808259,0.060404 0.2317037,0.1020924 0.3935704,0.3252782 0.3935704,0.5861809 0,0.3505176 -0.2923667,0.6346747 -0.6554576,0.6440325 -0.00681,2.844e-4 -0.012724,0.00197 -0.018939,0.00197 -0.097653,0 -0.1890914,-0.023256 -0.2722443,-0.059272 -0.00473,0.043675 -0.00798,0.087628 -0.012131,0.1315839 0.089071,-0.041687 0.1855405,-0.070896 0.2911831,-0.070896 0.00413,0 0.0074,0.00114 0.01154,0.00114 0.366938,0.00595 0.6628554,0.2918143 0.6628554,0.645167 0,0.3539221 -0.2965093,0.6406301 -0.6646309,0.6454521 -0.00355,2.83e-4 -0.00621,0.0011 -0.00976,0.0011 -0.1062344,0 -0.2035914,-0.02949 -0.2929585,-0.07146 0.00414,0.04254 0.00621,0.0862 0.010949,0.129035 0.082561,-0.03516 0.1716323,-0.05758 0.2675097,-0.05758 0.00858,0 0.016276,0.0023 0.024857,0.0023 0.3607237,0.01276 0.6501309,0.295218 0.6501309,0.644034 0,0.260337 -0.1612755,0.482955 -0.3923866,0.58533 -0.086112,0.03829 -0.1813976,0.06099 -0.2826013,0.06099 -0.00295,0 -0.00593,-0.0011 -0.00858,-0.0015 5.911e-4,0.002 5.911e-4,0.0038 0.00117,0.0055 0.00977,-5.68e-4 0.018938,-0.004 0.029,-0.004 0.1109691,0 0.2145402,0.02865 0.3068664,0.07431 0.2172033,0.107197 0.3675294,0.321876 0.3675294,0.572568 0,0.07345 -0.01509,0.142363 -0.038765,0.207873 -0.038171,0.106345 -0.105051,0.19766 -0.1902749,0.270828 0.092918,0.173273 0.1941219,0.34286 0.3021313,0.507341 0.051487,-0.0879 0.1219184,-0.16278 0.20803,-0.21893 0.1080104,-0.07033 0.2388061,-0.112019 0.3790711,-0.112019 0.3728559,0 0.6743964,0.289546 0.6743964,0.646587 0,0.196242 -0.092918,0.370367 -0.2376223,0.488908 -0.079306,0.06494 -0.1739997,0.111736 -0.2778661,0.136406 0.018937,0.01929 0.038765,0.03799 0.057107,0.05728 0.2006326,0.06324 0.3583561,0.212127 0.4264174,0.403549 0.023082,0.01929 0.046162,0.03799 0.069243,0.05728 0.03018,-0.09614 0.079898,-0.183201 0.1491424,-0.255232 0.1231021,-0.129034 0.2982847,-0.210992 0.4953661,-0.210992 0.372856,0 0.6743958,0.289547 0.6743958,0.646302 0,0.11684 -0.034621,0.225456 -0.091439,0.319607 -0.052081,0.08649 -0.1254689,0.158526 -0.2109894,0.213827 0.1600917,0.09215 0.3249177,0.177811 0.4929995,0.257782 0.086704,-0.08252 0.1941219,-0.144629 0.3178152,-0.171288 0.049125,-0.01077 0.099428,-0.01786 0.1521016,-0.01786 0.2322953,0 0.4376625,0.112585 0.5589888,0.284439 0.066584,0.09472 0.1041628,0.20844 0.1103771,0.330384 0.00475,0.0015 0.00917,0.0026 0.01391,0.0038 0.00976,-0.0984 0.038171,-0.191139 0.08848,-0.271394 0.1171834,-0.189439 0.3311318,-0.31734 0.5773352,-0.31734 0.3352745,0 0.6113664,0.234814 0.6634474,0.541657 0.00598,0.03433 0.010958,0.06919 0.010958,0.104646 0,0.06267 -0.012135,0.121376 -0.029587,0.178378 0.024261,0.0023 0.049128,0.004 0.07339,0.0056 -0.025442,-0.06751 -0.043795,-0.138959 -0.043795,-0.215526 0,-0.02439 0.00527,-0.04764 0.00747,-0.07146 0.037574,-0.323578 0.3201828,-0.575122 0.6675892,-0.575122 0.342082,0 0.622019,0.245023 0.665223,0.561794 0.0045,0.02806 0.0092,0.05529 0.0092,0.08479 0,0.07231 -0.01686,0.139525 -0.03995,0.20475 0.02249,-0.0023 0.04379,-0.006 0.06599,-0.0074 -0.01509,-0.05362 -0.02604,-0.109466 -0.02604,-0.167886 0,-0.03999 0.0053,-0.07857 0.01214,-0.116839 0.0577,-0.301171 0.331724,-0.529461 0.662262,-0.529461 0.23289,0 0.437959,0.112585 0.559582,0.284723 0.05533,0.07798 0.08553,0.171006 0.100613,0.267993 0.0063,-0.002 0.01332,-0.0045 0.01953,-0.0063 0.01214,-0.131017 0.06481,-0.250692 0.146183,-0.348248 0.123694,-0.147468 0.31101,-0.243037 0.523775,-0.243037 0.02425,0 0.04794,0.0045 0.07161,0.0066 0.136418,0.01446 0.257745,0.0692 0.357173,0.148318 0.173407,-0.08593 0.34208,-0.178379 0.506906,-0.277635 -0.07753,-0.06183 -0.141744,-0.137825 -0.184357,-0.226875 -0.03936,-0.08194 -0.06245,-0.171853 -0.06245,-0.268276 0,-0.357322 0.302133,-0.6463 0.674396,-0.6463 0.16305,0 0.310418,0.05758 0.427009,0.149454 0.07813,0.06211 0.140561,0.139524 0.183766,0.228287 0.154468,-0.137824 0.30361,-0.282454 0.445651,-0.433323 -0.09144,-0.04169 -0.171632,-0.102093 -0.235255,-0.177246 -0.0947,-0.111733 -0.154172,-0.251544 -0.154172,-0.406385 0,-0.357323 0.302132,-0.646583 0.674397,-0.646583 0.09084,0 0.176959,0.01787 0.25508,0.04877 0.09469,0.03715 0.177255,0.09557 0.243835,0.167319 0.10298,-0.163064 0.198266,-0.331799 0.286745,-0.503655 -0.06066,-0.09644 -0.09706,-0.208157 -0.09706,-0.329249 0,-0.297202 0.209804,-0.54421 0.494478,-0.620494 0.0047,-0.01474 0.0089,-0.0295 0.01391,-0.0434 -0.100906,-0.02213 -0.192937,-0.06494 -0.271652,-0.124212 -0.155949,-0.118541 -0.257744,-0.299472 -0.257744,-0.504223 0,-0.29777 0.21099,-0.545627 0.495958,-0.62078 0.05712,-0.01503 0.117184,-0.02609 0.178734,-0.02609 0.04172,0 0.08197,0.0048 0.121918,0.01162 5.91e-4,-0.0066 0.0013,-0.01389 0.0018,-0.0207 -0.03522,0.006 -0.07161,0.0091 -0.109192,0.0091 -0.06451,-8.29e-4 -0.126358,-0.01249 -0.185541,-0.02836 z m -0.48856,-0.648004 c 0,0.357324 -0.302133,0.646588 -0.674398,0.646588 -0.372855,0 -0.674099,-0.289547 -0.674099,-0.646588 0,-0.35704 0.301835,-0.6463016 0.674099,-0.6463016 0.371968,-2.835e-4 0.674398,0.2892616 0.674398,0.6463016 z M 15.665789,7.9988467 c 0.372855,0 0.674101,0.2895455 0.674101,0.646585 0,0.3570402 -0.301838,0.6463021 -0.674101,0.6463021 -0.372263,0 -0.674396,-0.2895454 -0.674396,-0.6463021 -2.97e-4,-0.3573229 0.301837,-0.646585 0.674396,-0.646585 z M 12.911684,4.0901248 c 0.02782,-0.00369 0.05563,-0.00822 0.08434,-0.00822 0.257744,0 0.479682,0.140377 0.59302,0.3442781 0.0503,0.090464 0.08137,0.1925575 0.08137,0.3020232 0,0.3573236 -0.30213,0.6465857 -0.674395,0.6465857 -0.372856,0 -0.674397,-0.2895453 -0.674397,-0.6465857 -2.95e-4,-0.329248 0.257449,-0.5983748 0.590061,-0.6380774 z m -1.265049,0.036583 c 0.372857,0 0.674101,0.2895454 0.674101,0.6463022 0,0.3573229 -0.301837,0.6465856 -0.674101,0.6465856 -0.372263,0 -0.674396,-0.2895454 -0.674396,-0.6465856 -2.95e-4,-0.3570395 0.301245,-0.6463022 0.674396,-0.6463022 z m -1.349088,-0.029496 c 0.371969,0 0.674396,0.2895461 0.674396,0.646302 0,0.3573238 -0.302131,0.6465858 -0.674396,0.6465858 -0.3728558,0 -0.6743966,-0.2895453 -0.6743966,-0.6465858 0,-0.3567559 0.3015408,-0.646302 0.6743966,-0.646302 z m -1.3496808,0.031766 c 0.3728569,0 0.6743966,0.2895447 0.6743966,0.6463008 0,0.3573245 -0.301835,0.6465856 -0.6743966,0.6465856 -0.372559,0 -0.6743961,-0.2895453 -0.6743961,-0.6465856 0,-0.3567561 0.3018371,-0.6463008 0.6743961,-0.6463008 z M 7.5990745,4.0997663 c 0.3722641,0 0.6743956,0.2895454 0.6743956,0.6463014 0,0.3573238 -0.3021315,0.646585 -0.6743956,0.646585 -0.372856,0 -0.6743964,-0.2895454 -0.6743964,-0.646585 0,-0.3570402 0.3015404,-0.6463014 0.6743964,-0.6463014 z M 4.1972053,8.6411779 c 0,-0.3573238 0.3021315,-0.6465857 0.6743963,-0.6465857 0.372856,0 0.6743965,0.2895456 0.6743965,0.6465857 0,0.3570404 -0.3018369,0.6463015 -0.6743965,0.6463015 -0.3722648,0 -0.6743963,-0.2895454 -0.6743963,-0.6463015 z m 1.3564864,1.2940214 c 0,0.3573227 -0.3021323,0.6465847 -0.6743964,0.6465847 -0.372856,0 -0.6743965,-0.289545 -0.6743965,-0.6465847 0,-0.35704 0.301836,-0.646302 0.6743965,-0.646302 0.3719684,0 0.6743964,0.289262 0.6743964,0.646302 z M 4.1901035,11.22837 c 0,-0.357323 0.3018352,-0.6463 0.6743955,-0.6463 0.3725606,0 0.6743966,0.289544 0.6743966,0.6463 0,0.357327 -0.301836,0.646303 -0.6743966,0.646303 -0.3725603,2.84e-4 -0.6743955,-0.289545 -0.6743955,-0.646303 z m 0.6959979,1.939189 c -0.3728567,0 -0.6743963,-0.289545 -0.6743963,-0.646301 0,-0.357324 0.301836,-0.646301 0.6743963,-0.646301 0.3722642,0 0.6743965,0.289546 0.6743965,0.646301 0,0.357323 -0.3021323,0.646301 -0.6743965,0.646301 z M 6.22069,14.490223 c -0.3722648,0 -0.6743964,-0.289545 -0.6743964,-0.646301 0,-0.357324 0.3021316,-0.646584 0.6743964,-0.646584 0.372856,0 0.6749884,0.289544 0.6749884,0.646584 0,0.357039 -0.3024286,0.646301 -0.6749884,0.646301 z m 1.3570784,1.249783 c -0.3728567,0 -0.6749883,-0.289547 -0.6749883,-0.646303 0,-0.357322 0.3021316,-0.646302 0.6749883,-0.646302 0.372264,0 0.6743964,0.289546 0.6743964,0.646302 0,0.356756 -0.3024286,0.646303 -0.6743964,0.646303 z m 1.3487927,0.02921 c -0.3728569,0 -0.6743963,-0.289545 -0.6743963,-0.646586 0,-0.357039 0.3018363,-0.646018 0.6743963,-0.646018 0.3725599,0 0.6743969,0.289544 0.6743969,0.646018 2.945e-4,0.357323 -0.3015409,0.646586 -0.6743969,0.646586 z m 1.3496809,-0.03176 c -0.3728574,0 -0.6749886,-0.289546 -0.6749886,-0.646586 0,-0.35704 0.3021312,-0.646301 0.6749886,-0.646301 0.372263,0 0.674396,0.289544 0.674396,0.646301 0,0.35704 -0.302133,0.646586 -0.674396,0.646586 z m 1.348792,0.02891 c -0.372856,0 -0.674396,-0.289545 -0.674396,-0.646302 0,-0.357323 0.302131,-0.646303 0.674396,-0.646303 0.372856,0 0.674395,0.289547 0.674395,0.646303 2.96e-4,0.357324 -0.301539,0.646302 -0.674395,0.646302 z m 1.845637,-0.256359 c -0.13109,0.07146 -0.26514,0.139527 -0.401264,0.202769 -0.03107,0.0045 -0.06214,0.0091 -0.0941,0.0091 -0.372856,0 -0.674988,-0.289544 -0.674988,-0.646583 0,-0.357041 0.302132,-0.646303 0.674988,-0.646303 0.372264,0 0.674395,0.289544 0.674395,0.646303 -5.89e-4,0.168166 -0.06954,0.319887 -0.17903,0.43474 z m 0.845437,-1.053536 c -0.372264,0 -0.674395,-0.289547 -0.674395,-0.646019 0,-0.357322 0.302131,-0.646585 0.674395,-0.646585 0.372856,0 0.674988,0.289545 0.674988,0.646585 0,0.35704 -0.302427,0.646019 -0.674988,0.646019 z m 0.0142,-1.292604 c -0.28201,0 -0.522591,-0.165901 -0.623202,-0.400997 -0.13701,0.156828 -0.288224,0.301456 -0.446244,0.438715 0.224898,0.104644 0.380549,0.324144 0.380549,0.579941 0,0.357041 -0.301835,0.646018 -0.674099,0.646018 -0.351255,0 -0.63504,-0.256648 -0.668184,-0.584762 -0.0033,0.0015 -0.0063,0.003 -0.0086,0.0043 -0.01243,0.347115 -0.307755,0.625318 -0.672917,0.625318 -0.203,0 -0.382621,-0.0879 -0.506314,-0.223187 -0.144112,0.02866 -0.292071,0.04962 -0.441511,0.06466 -0.112447,0.08027 -0.25005,0.129602 -0.400671,0.129602 -0.145,0 -0.278459,-0.0448 -0.3888366,-0.119677 -0.158907,-0.0099 -0.3160392,-0.02779 -0.4705089,-0.05331 -0.123101,0.125063 -0.2965087,0.204469 -0.4900388,0.204469 -0.3376427,0 -0.6149174,-0.238499 -0.66404,-0.549031 -0.00798,-0.0034 -0.01509,-0.0068 -0.022487,-0.01021 -0.057702,0.301174 -0.3311321,0.529748 -0.6622641,0.529748 -0.372856,0 -0.6743965,-0.289547 -0.6743965,-0.646304 0,-0.220916 0.1162958,-0.416025 0.2923667,-0.532582 C 7.0518635,13.153446 6.923139,13.03122 6.8003332,12.903036 c -0.1201427,0.17696 -0.3275807,0.294366 -0.5646112,0.294366 -0.3728559,0 -0.6743956,-0.289545 -0.6743956,-0.646585 0,-0.309113 0.2266729,-0.566613 0.5288046,-0.630704 -0.00535,-0.0096 -0.00977,-0.01957 -0.01509,-0.0295 -0.3056828,-0.06184 -0.5353152,-0.321308 -0.5353152,-0.632123 0,-0.155124 0.05889,-0.295502 0.154173,-0.406952 -0.045568,-0.206453 -0.072206,-0.418579 -0.086112,-0.633541 -0.034621,-0.07741 -0.053856,-0.163064 -0.053856,-0.2532462 0,-0.085644 0.018052,-0.1673181 0.049712,-0.242185 C 5.6152215,9.496517 5.6388966,9.2736147 5.683874,9.0578027 5.5989468,8.9494347 5.5462736,8.816147 5.5462736,8.6703823 c 0,-0.2963523 0.2092136,-0.5433585 0.4929985,-0.6199278 0.00798,-0.017014 0.016865,-0.033749 0.024855,-0.050476 -0.2890885,-0.072847 -0.503332,-0.3229705 -0.503332,-0.6230082 0,-0.3570403 0.3021316,-0.6463022 0.6743956,-0.6463022 -0.372264,0 -0.6743956,-0.2895453 -0.6743956,-0.6463022 0,-0.357323 0.3021316,-0.6465849 0.6743956,-0.6465849 0.372856,0 0.6749876,0.2895454 0.6749876,0.6465849 0,0.3570402 -0.3021316,0.6463022 -0.6749876,0.6463022 0.2219388,0 0.4172438,0.103794 0.5397539,0.2623207 C 6.913139,6.8463739 7.0587302,6.7074146 7.2152706,6.5795152 7.0315061,6.4640944 6.9101789,6.2658652 6.9101789,6.0395602 c 0,-0.3573237 0.3018368,-0.6465858 0.6743964,-0.6465858 0.339122,0 0.6172852,0.241052 0.6646316,0.5535682 0.00798,-0.00369 0.016278,-0.00767 0.024262,-0.011346 C 8.3382779,5.6422484 8.6093351,5.422183 8.933364,5.422183 c 0.1802142,0 0.3426733,0.068629 0.4639991,0.1789452 0.1473681,-0.024672 0.2965099,-0.042252 0.448611,-0.053032 0.1177756,-0.097272 0.2692859,-0.1579599 0.4370699,-0.1579599 0.178736,0 0.340306,0.067776 0.461337,0.1766764 0.132866,0.015596 0.265142,0.034313 0.394754,0.060404 0.123693,-0.1267642 0.297694,-0.2075881 0.492998,-0.2075881 0.359541,0 0.650131,0.2696943 0.671141,0.6091522 0.0018,5.66e-4 0.0037,0.00143 0.0053,0.00225 -5.92e-4,-0.00339 -0.0013,-0.00626 -0.0013,-0.00963 0,-0.3573235 0.302134,-0.6465864 0.674398,-0.6465864 0.372856,0 0.674396,0.2895462 0.674396,0.6465864 0,0.278769 -0.18554,0.5141485 -0.443877,0.605181 0.176367,0.1477512 0.342082,0.3062779 0.492407,0.4781327 0.09943,-0.2384987 0.341489,-0.4075185 0.625866,-0.4075185 -0.372265,0 -0.674396,-0.2895454 -0.674396,-0.6463023 0,-0.3573228 0.302131,-0.6465856 0.674396,-0.6465856 0.372856,0 0.674988,0.2895453 0.674988,0.6465856 0,0.3570397 -0.302132,0.6463023 -0.674988,0.6463023 0.372856,0 0.674988,0.2895454 0.674988,0.6463013 0,0.3573239 -0.302132,0.6465857 -0.674988,0.6465857 -0.0092,0 -0.01835,-0.00225 -0.02722,-0.00287 5.91e-4,0.00143 0.0013,0.00287 0.0018,0.00391 0.0041,0 0.0072,-0.00114 0.01154,-0.00114 0.372264,0 0.674102,0.2895454 0.674102,0.6465855 0,0.2172299 -0.112746,0.4080861 -0.284377,0.5254925 0.01716,0.089898 0.03196,0.1800789 0.0432,0.2716784 0.150623,0.1185409 0.24798,0.2960682 0.24798,0.4968508 0,0.2004968 -0.09676,0.3777418 -0.246797,0.4962828 -0.01066,0.09357 -0.02722,0.185468 -0.0435,0.277635 0.166603,0.11769 0.277276,0.305708 0.277276,0.519819 0,0.357041 -0.302133,0.646304 -0.674988,0.646304 -5.92e-4,8.3e-4 -5.92e-4,0.0015 -0.0013,0.0023 0.0074,-2.82e-4 0.01509,-0.0023 0.02248,-0.0023 0.372856,0 0.674396,0.289543 0.674396,0.646017 -2.97e-4,0.357607 -0.301836,0.647152 -0.674988,0.647152 z m 2.014016,-0.737334 c 0.0056,0.03261 0.01005,0.06523 0.01005,0.09925 0,0.246158 -0.144704,0.457432 -0.355693,0.566613 -0.09528,0.04934 -0.203294,0.07999 -0.318408,0.07999 -0.372856,0 -0.6741,-0.289545 -0.6741,-0.646584 0,-0.357041 0.301835,-0.646302 0.6741,-0.646302 0.336754,-2.84e-4 0.613734,0.237364 0.66404,0.547046 z m -0.685641,-0.547335 c -0.372856,0 -0.674398,-0.289543 -0.674398,-0.6463 0,-0.357323 0.302133,-0.646585 0.674398,-0.646585 0.372855,0 0.674395,0.289544 0.674395,0.646585 2.96e-4,0.35704 -0.30154,0.6463 -0.674395,0.6463 z"
   id="path27"
   style="fill:#106de6;fill-opacity:1;stroke-width:0.289689"
   inkscape:label="path27" /><path
   d="m 10.510047,13.847559 c 0.444013,-0.01866 0.870023,-0.104753 1.267535,-0.247104 0.100202,-0.168754 0.326409,-0.597241 0.518715,-1.281155 h -1.78625 z"
   id="path26"
   style="fill:#00ae1b;fill-opacity:1;stroke-width:0.293431"
   inkscape:label="path26" /><path
   d="m 12.314597,13.364545 c 0.498013,-0.261744 0.934526,-0.619054 1.281935,-1.045819 h -0.912326 c -0.118202,0.444845 -0.252907,0.791251 -0.369609,1.045819 z"
   id="path25"
   style="fill:#00ae1b;fill-opacity:1;stroke-width:0.293431"
   inkscape:label="path25" /><path
   d="m 12.603504,10.147598 h -2.093758 v 1.816688 h 1.876853 c 0.114603,-0.497938 0.200705,-1.104363 0.216905,-1.816688 z"
   id="path24"
   style="fill:#00ae1b;fill-opacity:1;stroke-width:0.293431"
   inkscape:label="path24" /><path
   d="m 12.977315,9.7931554 h 1.494641 C 14.456054,9.0986234 14.25325,8.4480018 13.909441,7.8852006 H 12.77871 c 0.111303,0.5312316 0.191105,1.1680771 0.198605,1.9079548 z"
   id="path23"
   style="fill:#00ae1b;fill-opacity:1;stroke-width:0.293431"
   inkscape:label="path23" /><path
   d="m 12.974615,10.147598 c -0.01561,0.705151 -0.0948,1.312436 -0.204906,1.816688 h 1.085731 c 0.345609,-0.534675 0.562515,-1.154014 0.608116,-1.816688 z"
   id="path22"
   style="fill:#00ae1b;fill-opacity:1;stroke-width:0.293431"
   inkscape:label="path22" /><path
   d="m 12.398299,7.8852006 h -1.888252 v 1.9079548 h 2.096459 c -0.0084,-0.7447562 -0.09301,-1.38275 -0.208207,-1.9079548 z"
   id="path21"
   style="fill:#00ae1b;fill-opacity:1;stroke-width:0.293431"
   inkscape:label="path21" /><path
   d="M 11.775182,6.1623594 C 11.378572,6.0202966 10.95316,5.9347716 10.510047,5.9161165 v 1.61407 h 1.80125 C 12.115391,6.8012146 11.878084,6.3411589 11.775182,6.1623594 Z"
   id="path20"
   style="fill:#00ae1b;fill-opacity:1;stroke-width:0.293431"
   inkscape:label="path20" /><path
   d="M 13.665835,7.5301865 C 13.305524,7.0629553 12.841411,6.6737875 12.305896,6.3939661 12.4289,6.666039 12.574103,7.0434396 12.697406,7.5301865 Z"
   id="path19"
   style="fill:#00ae1b;fill-opacity:1;stroke-width:0.293431"
   inkscape:label="path19" /><path
   d="M 8.4228882,7.5301865 H 10.139237 V 5.9158296 C 9.7348252,5.9330477 9.3463142,6.0059469 8.9803037,6.126198 8.892697,6.2722796 8.6343945,6.7452506 8.4228882,7.5301865 Z"
   id="path18"
   style="fill:#00ae1b;fill-opacity:1;stroke-width:0.293431"
   inkscape:label="path18" /><path
   d="M 8.3472861,11.964573 H 10.139237 V 10.148459 H 8.1306803 c 0.016805,0.711464 0.1023027,1.317889 0.2166058,1.816114 z"
   id="path17"
   style="fill:#00ae1b;fill-opacity:1;stroke-width:0.293431"
   inkscape:label="path17" /><path
   d="M 8.1273804,9.7931554 H 10.138936 V 7.8852006 H 8.3358858 C 8.220683,8.4104054 8.1363804,9.0483992 8.1273804,9.7931554 Z"
   id="path16"
   style="fill:#00ae1b;fill-opacity:1;stroke-width:0.293431"
   inkscape:label="path16" /><path
   d="m 8.9782031,13.636617 c 0.3669111,0.120538 0.7560222,0.194009 1.1607329,0.210942 V 12.3193 H 8.4378888 c 0.2076057,0.739592 0.4554122,1.180131 0.5403143,1.317317 z"
   id="path15"
   style="fill:#00ae1b;fill-opacity:1;stroke-width:0.293431"
   inkscape:label="path15" /><path
   d="M 8.4525892,6.3397239 C 7.8708731,6.6224153 7.3674591,7.0316724 6.9831485,7.5301865 H 8.0367776 C 8.169081,7.0112961 8.3250855,6.6143798 8.4525892,6.3397239 Z"
   id="path14"
   style="fill:#00ae1b;fill-opacity:1;stroke-width:0.293431"
   inkscape:label="path14" /><path
   d="M 7.9551749,7.8852006 H 6.7392419 C 6.395432,8.4482885 6.1926266,9.098911 6.1761262,9.7931554 H 7.75657 C 7.7641,9.0532777 7.843873,8.4164322 7.9551749,7.8852006 Z"
   id="path13"
   style="fill:#00ae1b;fill-opacity:1;stroke-width:0.293431"
   inkscape:label="path13" /><path
   d="m 7.7595703,10.147598 h -1.575044 c 0.046205,0.663247 0.2625069,1.282013 0.6087164,1.816688 H 7.9638754 C 7.8543727,11.460607 7.7754708,10.853322 7.7595703,10.147598 Z"
   id="path12"
   style="fill:#00ae1b;fill-opacity:1;stroke-width:0.293431"
   inkscape:label="path12" /><path
   d="m 7.05215,12.3193 c 0.3732105,0.458049 0.847824,0.834875 1.3929388,1.100634 C 8.322686,13.161925 8.1765812,12.79629 8.0496776,12.3193 Z"
   id="path11"
   style="fill:#00ae1b;fill-opacity:1;stroke-width:0.293431"
   inkscape:label="path11" /><path
   d="m 17.014545,3.235006 c -3.754777,-3.71603189 -9.8630046,-3.71603189 -13.6182447,9.168e-4 -3.75894496,3.7160319 -3.75940805,9.7673052 -0.00278,13.4847122 3.7566294,3.715573 9.8662467,3.715573 13.6210237,-4.59e-4 3.754777,-3.716948 3.754314,-9.7686798 0,-13.48517 z M 5.1634721,14.97035 C 2.3835107,12.218396 2.384437,7.7381618 5.1643983,4.9889584 7.9443596,2.2374628 12.467412,2.2374628 15.246447,4.9875831 c 2.778109,2.7505787 2.777182,7.2257699 0,9.9818509 -2.779498,2.743243 -7.3020874,2.753329 -10.0829749,9.16e-4 z"
   id="path2"
   style="fill:#2c3ee0;fill-opacity:1;stroke-width:0.460757"
   inkscape:label="path2" /><path
   d="m 23.120457,19.837499 -4.133126,-4.081858 c -0.02084,-0.02063 -0.04538,-0.03576 -0.06715,-0.05042 -0.371403,0.565244 -0.815511,1.102524 -1.316581,1.598545 -0.500606,0.49602 -1.044279,0.935655 -1.621297,1.304233 0.02037,0.02109 0.03566,0.04584 0.05649,0.06602 l 4.12479,4.091027 c 0.816437,0.806836 2.142279,0.80592 2.955937,0 0.814585,-0.806837 0.815048,-2.11978 9.26e-4,-2.927533 z"
   id="path1_"
   style="fill:#2c3ee0;fill-opacity:1;stroke-width:0.460757"
   inkscape:label="path1_" />
</g><g
   inkscape:groupmode="layer"
   id="layer1"
   inkscape:label="g2"><g
     id="g11888"><text
       xml:space="preserve"
       id="text389"
       style="letter-spacing:-0.6px;word-spacing:0px;white-space:pre;shape-inside:url(#rect391);shape-padding:0;display:inline;fill:#2c3ee0;stroke:none;stroke-width:0;stroke-dasharray:none;fill-opacity:1"
       transform="translate(1.6979317,2.5946251)"><tspan
         x="25.748047"
         y="13.766323"
         id="tspan11924"><tspan
           style="font-family:'Microsoft Sans Serif';-inkscape-font-specification:'Microsoft Sans Serif';stroke:#16172f"
           id="tspan11922">Count Routes</tspan></tspan></text><text
       xml:space="preserve"
       id="text1894"
       style="font-style:normal;font-variant:normal;font-weight:normal;font-stretch:normal;font-size:8px;font-family:'Microsoft Sans Serif';-inkscape-font-specification:'Microsoft Sans Serif';white-space:pre;shape-inside:url(#rect1896);display:inline;fill:#2c3ee0;stroke:none;stroke-width:0.124;stroke-dasharray:none;stroke-opacity:1"
       transform="translate(-58.152174,12.40942)"><tspan
         x="109.9082"
         y="13.610332"
         id="tspan11930"><tspan
           style="letter-spacing:-0.24px;fill:#37a627"
           id="tspan11926">QGIS Plugin</tspan><tspan
           dx="-0.23999786"
           style="fill:#236819"
           id="tspan11928"> </tspan></tspan></text></g></g>
</svg>
