<?xml version="1.0" encoding="UTF-8" standalone="no"?>
<!-- Uploaded to: SVG Repo, www.svgrepo.com, Generator: SVG Repo Mixer Tools -->

<svg
   fill="#000000"
   version="1.1"
   id="Capa_1"
   width="24"
   height="24"
   viewBox="0 0 24 24"
   xml:space="preserve"
   sodipodi:docname="icon_find_narrow.svg"
   inkscape:version="1.2 (dc2aedaf03, 2022-05-15)"
   xmlns:inkscape="http://www.inkscape.org/namespaces/inkscape"
   xmlns:sodipodi="http://sodipodi.sourceforge.net/DTD/sodipodi-0.dtd"
   xmlns="http://www.w3.org/2000/svg"
   xmlns:svg="http://www.w3.org/2000/svg"><defs
   id="defs586" /><sodipodi:namedview
   id="namedview584"
   pagecolor="#ffffff"
   bordercolor="#000000"
   borderopacity="0.25"
   inkscape:showpageshadow="2"
   inkscape:pageopacity="0.0"
   inkscape:pagecheckerboard="0"
   inkscape:deskcolor="#d1d1d1"
   showgrid="false"
   inkscape:zoom="2.76"
   inkscape:cx="-5.7971014"
   inkscape:cy="48.188406"
   inkscape:window-width="1051"
   inkscape:window-height="724"
   inkscape:window-x="2123"
   inkscape:window-y="0"
   inkscape:window-maximized="0"
   inkscape:current-layer="g1" />
<g
   id="g1"
   inkscape:label="g1">
	<path
   d="m 17.014545,3.235006 c -3.754777,-3.71603189 -9.8630046,-3.71603189 -13.6182447,9.168e-4 -3.75894496,3.7160319 -3.75940805,9.7673052 -0.00278,13.4847122 3.7566294,3.715573 9.8662467,3.715573 13.6210237,-4.59e-4 3.754777,-3.716948 3.754314,-9.7686798 0,-13.48517 z M 5.1634721,14.97035 C 2.3835107,12.218396 2.384437,7.7381618 5.1643983,4.9889584 7.9443596,2.2374628 12.467412,2.2374628 15.246447,4.9875831 c 2.778109,2.7505787 2.777182,7.2257699 0,9.9818509 -2.779498,2.743243 -7.3020874,2.753329 -10.0829749,9.16e-4 z"
   id="path2"
   style="stroke-width:0.460757"
   inkscape:label="path2" /><path
   d="m 23.120457,19.837499 -4.133126,-4.081858 c -0.02084,-0.02063 -0.04538,-0.03576 -0.06715,-0.05042 -0.371403,0.565244 -0.815511,1.102524 -1.316581,1.598545 -0.500606,0.49602 -1.044279,0.935655 -1.621297,1.304233 0.02037,0.02109 0.03566,0.04584 0.05649,0.06602 l 4.12479,4.091027 c 0.816437,0.806836 2.142279,0.80592 2.955937,0 0.814585,-0.806837 0.815048,-2.11978 9.26e-4,-2.927533 z"
   id="path1_"
   style="stroke-width:0.460757"
   inkscape:label="path1_" /><path
   d="M 9.2237081,4.6724951 V 8.6646406 A 0.94738675,0.97167362 0 0 1 8.9054583,9.3927697 L 7.6814432,10.673269 v 4.112662 h -1.889876 v -4.504344 0 A 0.93269857,0.95660893 0 0 1 6.0608558,9.603674 L 7.3215912,8.2729587 V 4.6724951 Z m 3.7993409,0 v 3.6004668 l 1.260732,1.3307139 a 0.94493869,0.96916284 0 0 1 0.269289,0.6779132 v 0 4.504345 H 12.655846 V 10.673269 L 11.431831,9.3927697 A 0.94738675,0.97167362 0 0 1 11.113585,8.6646406 V 4.6724951 Z"
   id="path1"
   style="stroke-width:0.24792"
   inkscape:label="path1" />
</g>
</svg>
